# xmcd
#
# Track frame offsets:
#        150
#        20727
#        45808
#
# Disc length: 862 seconds
#
# Revision: 0
# Processed by: cddbd v1.5.1PL0 Copyright (c) Steve Scherf et al.
# Submitted via: ExactAudioCopy v0.95b2
#
DISCID=18035c03
DTITLE=AMADORI - Wonderful Life
DYEAR=2003
DGENRE=JPop
TTITLE0=DIVA
TTITLE1=New day
TTITLE2=Wonderful Life
EXTD=
EXTT0=
EXTT1=
EXTT2=
PLAYORDER=
